<svg width="256" height="256" viewBox="0 0 256 256" fill="none" xmlns="http://www.w3.org/2000/svg">
<rect width="256" height="256" rx="60" fill="#DED15D"/>
<rect x="5.07654" y="5.38947" width="245.847" height="246.119" rx="60" fill="#E8E58E" fill-opacity="0.44"/>
<path d="M95.6449 24.0897C83.7986 28.9676 80.4886 31.7549 73.6945 42.0333C67.2487 51.6149 64.1129 64.6806 65.6808 74.959C67.2487 85.9342 76.8302 96.3868 89.7218 101.09C91.2897 101.613 92.6833 104.052 92.6833 106.143C92.6833 109.627 91.1155 110.498 80.1402 113.111C65.3324 116.769 49.4793 125.654 45.4725 132.622C37.4588 146.733 36.762 168.684 44.0788 179.136C50.5245 188.718 55.9251 190.634 79.6176 191.854C100.349 192.899 101.045 193.073 101.916 197.08C102.439 200.39 101.394 201.784 95.6449 205.094C86.0634 210.32 84.1471 213.804 88.1539 218.334C90.767 221.295 93.5544 221.992 101.22 221.818C106.62 221.818 112.543 221.121 114.46 220.424C116.899 219.379 119.337 220.076 122.647 222.515C127.874 226.347 137.978 227.044 156.444 224.605C166.548 223.386 167.419 223.56 174.214 228.612C183.447 235.232 191.635 236.8 199.474 233.49C208.707 229.657 214.456 220.947 215.676 208.578C217.069 195.861 214.108 189.066 204.178 182.621C200.171 180.008 197.209 176.523 197.209 174.781C197.209 173.039 195.293 170.6 192.854 169.207L188.499 166.942L192.68 161.367C199.3 152.308 199.822 144.991 194.596 133.668C192.157 128.267 187.279 121.299 183.621 118.163C174.736 110.149 157.838 104.923 142.333 105.446C125.086 105.968 125.435 102.833 143.204 94.4705C161.67 85.5858 166.026 79.8369 167.245 62.9385C168.813 38.7233 158.186 24.7865 136.062 21.6508C117.595 18.8634 106.62 19.5602 95.6449 24.0897ZM146.34 34.8907C148.953 36.807 152.96 42.0333 155.225 46.5628C158.709 53.5312 159.057 56.3185 158.012 64.6806C156.618 76.3527 152.263 80.8821 136.758 87.5021C124.738 92.5542 120.557 96.561 120.557 103.007C120.557 111.717 122.473 112.588 141.288 114.156C169.161 116.247 183.447 125.131 188.325 143.249C189.544 147.43 189.544 150.566 188.15 153.005C185.886 157.709 171.078 171.471 171.078 169.207C171.078 168.161 169.336 165.548 167.245 163.283C161.496 157.186 148.953 157.534 142.682 164.154C140.068 166.768 137.978 169.903 137.978 170.774C137.978 171.82 134.494 174.259 130.138 176.349C121.951 180.356 120.383 183.84 124.215 190.809C125.609 193.422 125.086 196.209 121.951 202.829C118.641 210.146 116.899 211.714 111.324 213.282C107.665 214.327 102.439 215.024 100 214.675C95.4707 214.153 95.4707 213.978 102.265 210.668C110.627 206.487 111.672 202.306 107.491 191.331L104.53 183.666L91.2897 183.492C66.2034 183.318 58.0156 181.401 52.4409 175.304C48.0856 170.426 47.3888 168.161 47.3888 159.799C47.3888 144.469 51.3956 135.932 61.674 129.661C66.3776 126.699 74.2171 123.564 79.2692 122.518C84.3213 121.299 91.2897 119.034 94.9481 117.118C101.568 113.808 101.568 113.634 100.523 106.491C98.9549 97.0836 99.1291 97.2579 87.9797 90.1153C75.6108 82.2758 72.475 75.3074 75.0881 62.0675C78.0497 47.0854 86.2376 37.5039 101.394 31.4065C102.788 30.8839 112.543 30.7097 122.822 30.8839C138.152 31.4065 142.333 32.1034 146.34 34.8907ZM163.587 169.032C164.109 170.6 164.632 173.91 164.806 176.523C164.98 181.401 165.155 181.401 177.872 178.962C186.06 177.394 183.621 180.704 172.646 186.453L163.935 190.809L156.793 184.537C151.044 179.311 148.779 178.265 144.772 179.136C138.326 180.356 138.326 177.917 144.946 171.471C151.044 165.548 161.67 164.154 163.587 169.032ZM198.08 189.763C208.533 195.861 210.798 202.132 206.965 214.327C202.261 228.961 192.506 231.225 177.872 221.121C167.942 214.327 162.542 213.63 149.302 217.637C139.72 220.598 128.919 219.727 125.783 215.895C123.344 212.933 130.487 198.648 137.978 191.505C142.159 187.499 143.378 187.15 146.166 188.892C148.431 190.286 148.605 190.634 146.514 190.112C143.378 189.066 139.72 191.854 139.72 195.338C139.72 196.557 141.462 197.603 143.553 197.603H147.385L143.378 201.261C140.417 204.049 139.894 205.442 141.636 207.358C144.424 210.843 145.992 210.494 150.695 205.268C154.005 201.61 155.573 201.087 158.186 202.481C162.019 204.397 169.336 202.306 169.336 198.996C169.336 197.254 186.931 185.756 190.067 185.408C190.415 185.408 194.073 187.324 198.08 189.763Z" fill="black"/>
<path d="M113.589 127.222C104.878 134.539 100.349 148.824 105.226 153.702C108.188 156.663 111.846 156.315 115.853 152.831C118.989 149.869 119.163 149.869 120.731 152.831C122.996 156.663 130.313 156.663 132.577 152.831C133.971 150.392 134.668 150.218 136.933 152.134C139.197 154.05 140.417 154.05 144.075 151.611C149.998 147.604 150.347 135.41 144.598 130.183C134.668 121.125 122.299 119.905 113.589 127.222ZM137.629 133.145C143.204 136.629 144.598 140.462 141.636 144.991C140.591 146.733 139.72 146.037 138.326 142.03C137.281 139.068 135.191 136.629 133.623 136.629C130.835 136.629 130.313 137.5 128.571 145.862C127.003 152.308 123.867 150.218 124.564 143.075C125.086 135.932 119.512 134.016 117.77 140.81C116.724 145.514 112.369 150.043 110.801 148.301C108.885 146.385 112.021 138.197 116.202 133.842C121.428 128.616 129.79 128.441 137.629 133.145Z" fill="black"/>
<path d="M162.193 142.378C159.231 143.946 158.012 146.037 158.012 149.695C158.012 154.05 158.709 155.096 162.541 155.444C165.155 155.792 168.465 154.747 170.033 153.179C176.478 146.559 170.555 138.371 162.193 142.378Z" fill="black"/>
<path d="M77.0045 150.914C72.3008 155.967 72.6492 160.67 77.8755 163.109C81.1855 164.677 82.9276 164.503 86.586 162.064C91.6381 158.754 92.1607 154.05 87.8055 150.043C83.4502 146.211 81.3597 146.385 77.0045 150.914Z" fill="black"/>
<path d="M115.331 164.677C94.5996 168.684 83.1018 172.342 82.5792 175.304C81.8823 179.311 90.2444 179.485 106.272 175.652C126.828 170.949 131.881 169.032 131.881 166.245C131.881 163.109 126.132 162.587 115.331 164.677Z" fill="black"/>
<path d="M182.924 192.551C175.956 196.557 181.53 206.662 188.499 202.829C191.112 201.435 191.983 199.519 191.635 196.209C191.112 191.157 187.628 189.589 182.924 192.551Z" fill="black"/>
<path d="M193.725 208.926C191.983 211.017 191.983 212.062 193.725 214.153C194.945 215.546 196.861 216.766 198.08 216.766C201.39 216.766 204.352 212.411 203.132 209.101C201.739 205.616 196.513 205.442 193.725 208.926Z" fill="black"/>
</svg>
